# xmcd CD database file
#
# Track frame offsets:
#	182
#	17425
#	34887
#	69712
#
# Disc length: 1164 seconds
#
# Revision: 2
# Processed by: cddbd v1.5.1PL0 Copyright (c) Steve Scherf et al.
# Submitted via: Feurio! 1.67 - http://www.feurio.com
#
DISCID=2c048a04
DTITLE=Jungle Brothers - 40 Below Trooper
DYEAR=1900
DGENRE=misc
TTITLE0=40 Below Trooper(7" Versio)
TTITLE1=40 Below Trooper(Heartbeat Mix)
TTITLE2=40 Below Trooper(12" Instrumental)
TTITLE3=40 Below Trooper(Instrumental)
EXTD=
EXTT0=
EXTT1=
EXTT2=
EXTT3=
PLAYORDER=
